<?xml version="1.0" encoding="UTF-8"?>
<svg id="Camada_1" xmlns="http://www.w3.org/2000/svg" viewBox="0 0 207.47 43.74">
  <defs>
    <style>
      .cls-1 {
        fill: #31b8c5;
      }
    </style>
  </defs>
  <g>
    <path class="cls-1" d="M78.78,7.54c-1.58-.79-3.52-1.19-5.81-1.19h-11.34v28.74h7v-10.32h4.34c2.35,0,4.31-.42,5.9-1.27,1.58-.85,2.76-1.96,3.52-3.34.76-1.38,1.15-2.9,1.15-4.57,0-1.8-.4-3.4-1.19-4.79-.79-1.39-1.98-2.48-3.56-3.28ZM75.42,18.27c-.65.63-1.65.94-2.99.94h-3.81v-7.21h3.81c1.34,0,2.33.31,2.99.94.66.63.98,1.52.98,2.66s-.33,2.03-.98,2.66Z"/>
    <path class="cls-1" d="M103.23,13.31c-1.72-.93-3.69-1.39-5.9-1.39s-4.27.48-6.02,1.43c-1.75.96-3.11,2.32-4.07,4.09-.97,1.77-1.45,3.85-1.45,6.22s.49,4.45,1.47,6.22c.98,1.77,2.35,3.14,4.09,4.09,1.75.96,3.74,1.43,5.98,1.43,1.86,0,3.53-.34,5.04-1.02,1.5-.68,2.75-1.62,3.75-2.83,1-1.2,1.69-2.55,2.07-4.05h-7.45c-.68,1.47-1.9,2.21-3.64,2.21-1.17,0-2.16-.38-2.97-1.13-.81-.75-1.26-1.84-1.37-3.26h15.85c.08-.71.12-1.39.12-2.05,0-2.29-.48-4.3-1.45-6.02-.97-1.72-2.31-3.04-4.03-3.97ZM92.79,21.46c.19-1.25.69-2.22,1.49-2.91.81-.68,1.79-1.02,2.97-1.02s2.25.35,3.07,1.06c.82.71,1.23,1.67,1.23,2.87h-8.76Z"/>
    <path class="cls-1" d="M121,28.71c-.33-.3-.49-.79-.49-1.47v-9.17h4.59v-5.81h-4.59v-5.57h-7v5.57h-2.78v5.81h2.78v9.09c0,2.81.71,4.84,2.13,6.08,1.42,1.24,3.4,1.86,5.94,1.86h3.56v-5.94h-2.5c-.76,0-1.31-.15-1.64-.45Z"/>
    <path class="cls-1" d="M136.72,12.04c0-1.2.27-2.03.82-2.5.55-.46,1.49-.66,2.83-.57V3.03c-.25-.03-.63-.04-1.15-.04-3.11,0-5.47.73-7.08,2.19-1.61,1.46-2.42,3.6-2.42,6.41v.65h-2.54v5.81h2.54v17.03h7v-17.03h3.77v-5.81h-3.77v-.2Z"/>
    <rect class="cls-1" x="143.76" y="4.8" width="7" height="30.3"/>
    <rect class="cls-1" x="155.84" y="12.25" width="7" height="22.85"/>
    <path class="cls-1" d="M159.36,9.87c1.2,0,2.19-.36,2.97-1.09.78-.72,1.17-1.62,1.17-2.68s-.39-2-1.17-2.72c-.78-.72-1.77-1.08-2.97-1.08s-2.23.36-3.01,1.08c-.78.72-1.17,1.63-1.17,2.72s.39,1.96,1.17,2.68c.78.72,1.78,1.09,3.01,1.09Z"/>
  </g>
  <path class="cls-1" d="M52.87,2.78H1.48c-.81,0-1.48.66-1.48,1.48v30.06c0,.81.66,1.48,1.48,1.48h15.04c.07.13.15.26.23.38h-2.73c-.54,0-.97.43-.97.97s.43.97.97.97h4.65c.65.47,1.29.82,1.75,1.04.23.46.33.74.25.9-.16.34-2.79,1.18-1.82,3.67h19.15c.97-2.5-1.67-3.33-1.82-3.67-.12-.27.21-.84.81-1.95h3.34c.54,0,.97-.43.97-.97s-.43-.97-.97-.97h-2.61c-.01-.13-.04-.25-.07-.38h15.22c.81,0,1.48-.66,1.48-1.48V4.26c0-.81-.66-1.48-1.48-1.48ZM52.34,33.8h-15.92c-.85-.98-1.81-1.72-1.81-1.72h0c-.23-1.28-.63-2.11-.95-1.98,0,0,0,0,0,0,1.8-.79,3.24-1.75,3.31-2.45-.04-2.22-1.49-3.98-1.67-5,0,0,3.05,1.53,2.08-2.91-.97-4.44-4.86-1.94-6.66-1.53-.9-.26-2.15-.23-2.33-.22-.19,0-1.44-.03-2.33.22-1.8-.42-5.69-2.91-6.66,1.53-.97,4.44,2.08,2.91,2.08,2.91-.18,1.01-1.62,2.78-1.67,5,.34.86,1.51,1.66,2.91,2.31-.26.76-.44,1.49-.56,2.17-.22.18-1.02.84-1.74,1.67h-.46c-.23-2.06-.81-5.43-2.09-4.35-1.44,1.65-1.95,3.1-1.92,4.35H2V4.78h50.34v29.02Z"/>
  <g>
    <path class="cls-1" d="M182.12,14.7c2.91-.45,4.77-4.07,4.16-8.09-.62-4.02-3.48-6.92-6.39-6.48-2.91.45-4.77,4.07-4.16,8.09.62,4.02,3.48,6.92,6.39,6.48Z"/>
    <ellipse class="cls-1" cx="194.37" cy="7.33" rx="7.37" ry="5.34" transform="translate(157.66 198.34) rotate(-81.28)"/>
    <path class="cls-1" d="M204.08,11.75c-2.55-.59-5.27,1.73-6.07,5.18-.8,3.45.61,6.74,3.16,7.33,2.55.59,5.27-1.73,6.07-5.18.8-3.45-.61-6.74-3.16-7.33Z"/>
    <path class="cls-1" d="M177.37,16.88c-.8-3.45-3.52-5.77-6.07-5.18-2.55.59-3.97,3.88-3.16,7.33.8,3.45,3.52,5.77,6.07,5.18,2.55-.59,3.97-3.88,3.16-7.33Z"/>
    <path class="cls-1" d="M196.18,25.38s-4.76-6.89-8.43-6.89-8.43,6.89-8.43,6.89c0,0-5.13,1.1-5.13,6.96s3.66,6.69,5.13,6.64c1.47-.05,4.76-1.29,8.43-1.22,3.66-.07,6.96,1.17,8.43,1.22,1.47.05,5.13-.78,5.13-6.64s-5.13-6.96-5.13-6.96Z"/>
  </g>
</svg>