<?xml version="1.0" encoding="UTF-8"?>
<svg id="Camada_1" data-name="Camada 1" xmlns="http://www.w3.org/2000/svg" viewBox="0 0 54.35 40.95">
  <defs>
    <style>
      .cls-1 {
        fill: #34b9c5;
      }
    </style>
  </defs>
  <path class="cls-1" d="M52.87,0H1.48C.67,0,0,.66,0,1.48v30.06c0,.81.66,1.48,1.48,1.48h15.04c.07.13.15.26.23.38h-2.73c-.54,0-.97.43-.97.97s.43.97.97.97h4.65c.65.47,1.29.82,1.75,1.04.23.46.33.74.25.9-.16.34-2.79,1.18-1.82,3.67h19.15c.97-2.5-1.67-3.33-1.82-3.67-.12-.27.21-.84.81-1.95h3.34c.54,0,.97-.43.97-.97s-.43-.97-.97-.97h-2.61c0-.13-.04-.25-.07-.38h15.22c.81,0,1.48-.66,1.48-1.48V1.48C54.35.67,53.69,0,52.87,0ZM52.34,31.02h-15.92c-.85-.98-1.81-1.72-1.81-1.72h0c-.23-1.28-.63-2.11-.95-1.98h0c1.8-.79,3.24-1.75,3.31-2.45-.04-2.22-1.49-3.98-1.67-5,0,0,3.05,1.53,2.08-2.91s-4.86-1.94-6.66-1.53c-.9-.26-2.15-.23-2.33-.22-.19,0-1.44-.03-2.33.22-1.8-.42-5.69-2.91-6.66,1.53s2.08,2.91,2.08,2.91c-.18,1.01-1.62,2.78-1.67,5,.34.86,1.51,1.66,2.91,2.31-.26.76-.44,1.49-.56,2.17-.22.18-1.02.84-1.74,1.67h-.46c-.23-2.06-.81-5.43-2.09-4.35-1.44,1.65-1.95,3.1-1.92,4.35H2V2h50.34v29.02Z"/>
</svg>